<?xml version="1.0" standalone="no"?>
<!DOCTYPE svg PUBLIC "-//W3C//DTD SVG 20010904//EN"
 "http://www.w3.org/TR/2001/REC-SVG-20010904/DTD/svg10.dtd">
<svg version="1.0" xmlns="http://www.w3.org/2000/svg"
 width="524.000000pt" height="500.000000pt" viewBox="0 0 524.000000 500.000000"
 preserveAspectRatio="xMidYMid meet">

<g transform="translate(0.000000,500.000000) scale(0.100000,-0.100000)"
fill="#000000" stroke="none">
<path d="M2011 4479 c-38 -15 -178 -117 -185 -135 -9 -24 -7 -73 4 -93 5 -10
95 -71 200 -137 104 -65 190 -121 190 -124 0 -4 -9 -11 -20 -16 -22 -10 -403
-357 -431 -393 -17 -21 -19 -43 -19 -215 l0 -191 -190 -190 c-119 -119 -194
-202 -200 -221 -13 -37 -3 -67 36 -113 l28 -33 -21 -17 c-32 -25 -43 -55 -43
-118 0 -67 6 -79 108 -208 66 -84 71 -94 77 -150 3 -33 14 -150 25 -260 10
-110 31 -328 45 -485 13 -157 29 -323 35 -370 5 -47 17 -164 26 -260 18 -200
32 -239 99 -277 l40 -23 695 0 695 0 40 23 c80 45 80 45 136 647 5 58 23 249
40 425 16 176 36 391 44 479 8 87 18 163 23 170 5 6 34 43 64 81 100 126 108
141 108 207 0 99 -33 137 -117 138 -29 0 -53 3 -53 7 0 3 36 51 81 105 85 104
105 143 95 183 -4 14 -42 80 -86 147 -44 66 -78 123 -75 126 2 3 45 -21 95
-52 109 -70 137 -79 177 -59 39 19 48 39 68 153 17 102 13 132 -21 161 -11 9
-134 87 -274 173 -140 87 -267 171 -282 187 -32 34 -36 72 -12 122 15 31 15
37 0 68 -13 28 -52 57 -203 151 -228 141 -235 143 -303 78 -67 -64 -66 -65
-395 140 -159 99 -296 180 -304 179 -9 0 -27 -5 -40 -10z m102 -886 c-77 -73
-92 -83 -118 -79 -41 6 -135 39 -135 47 0 3 21 26 48 50 205 186 249 227 267
246 l20 22 3 -102 3 -101 -88 -83z m361 118 l168 -155 -87 -28 -88 -29 -28 27
c-17 16 -35 24 -50 22 -38 -5 -35 -36 6 -78 l37 -38 -4 -118 -3 -119 -50 -78
c-27 -43 -54 -82 -60 -87 -7 -6 -53 33 -133 114 l-122 122 0 90 0 89 85 78
c47 42 90 77 96 77 6 0 22 -9 36 -20 19 -15 30 -17 44 -9 27 14 23 41 -11 74
-30 28 -30 30 -30 132 0 81 3 102 13 97 6 -5 88 -78 181 -163z m389 -116 c218
-136 397 -252 397 -256 0 -5 -114 -8 -262 -7 l-263 3 -5 115 c-3 63 -9 122
-15 132 -5 9 -73 73 -150 143 -133 121 -177 168 -124 134 13 -9 203 -127 422
-264z m-953 -139 l75 -24 0 -49 0 -48 -36 -3 c-24 -2 -50 -15 -77 -37 -21 -19
-42 -31 -46 -28 -9 9 -8 213 2 213 4 0 41 -11 82 -24z m748 -48 l-3 -73 -60
-6 c-33 -3 -68 -9 -78 -14 -16 -7 -18 -2 -15 55 l3 63 65 23 c95 33 91 35 88
-48z m212 -172 c0 -2 -28 -45 -61 -96 l-62 -93 -58 92 c-33 50 -59 93 -59 96
0 3 54 5 120 5 66 0 120 -2 120 -4z m420 -1 c0 -11 -112 -175 -120 -175 -6 0
-82 112 -114 168 -6 9 20 12 113 12 67 0 121 -2 121 -5z m-1380 -139 l0 -105
-106 -105 -105 -106 -112 0 -112 1 210 208 c116 115 213 209 218 210 4 0 7
-46 7 -103z m225 -16 c93 -93 126 -120 146 -120 32 0 50 -19 43 -46 -3 -13 9
-33 46 -69 27 -27 50 -53 50 -57 0 -4 -48 -8 -108 -8 l-107 0 -103 103 -102
102 0 108 c0 59 3 107 8 107 4 0 61 -54 127 -120z m484 3 c96 -148 97 -147
-71 -151 -69 -1 -137 2 -151 7 l-26 10 81 126 c44 69 84 125 87 124 3 0 39
-52 80 -116z m369 85 c11 -18 47 -75 81 -127 33 -52 61 -98 61 -103 0 -4 -20
-8 -44 -8 -27 0 -51 -6 -60 -16 -38 -37 -3 -72 76 -76 l56 -3 -35 -107 -35
-108 -128 0 -128 0 -34 108 -35 107 78 5 c97 6 122 23 95 64 -15 24 -23 26
-81 26 -36 0 -65 4 -65 9 0 14 161 261 170 261 5 0 17 -15 28 -32z m480 -94
c45 -69 82 -129 82 -135 0 -5 -62 -9 -149 -9 -119 0 -151 3 -161 15 -7 8 -10
21 -7 30 9 23 141 224 148 225 3 0 42 -56 87 -126z m-766 -344 l36 -110 -94 0
c-82 0 -95 2 -104 19 -8 15 -5 28 10 54 24 40 18 64 -25 115 l-27 32 84 0 84
0 36 -110z m831 98 c-5 -7 -40 -51 -76 -96 -37 -46 -67 -90 -67 -98 0 -11 -22
-14 -104 -14 l-104 0 36 110 36 110 144 0 c114 0 142 -3 135 -12z m-1793 -173
l34 -35 -115 0 -115 0 -34 35 -34 35 115 0 115 0 34 -35z m654 0 l-35 -35
-111 0 -112 0 34 35 34 35 113 0 112 0 -35 -35z m294 -512 c23 -20 162 -253
162 -271 0 -15 -65 -62 -119 -86 -51 -24 -54 -21 -115 85 l-42 74 -61 3 -61 3
-31 -55 c-36 -65 -38 -82 -11 -91 44 -14 49 -74 8 -96 -34 -18 -228 -67 -246
-62 -27 7 -39 32 -67 142 -30 121 -31 133 -4 156 17 17 24 17 52 7 18 -7 36
-14 40 -15 5 -1 33 41 63 93 30 52 64 103 76 113 17 15 42 17 178 17 136 0
161 -2 178 -17z m308 -448 c120 -34 140 -63 84 -115 -16 -15 -30 -32 -30 -36
0 -4 25 -51 55 -105 30 -53 55 -108 55 -121 0 -28 -131 -254 -166 -285 -24
-22 -33 -23 -179 -23 -182 0 -185 2 -185 105 0 97 10 105 135 105 l103 0 32
50 32 49 -33 61 c-34 61 -46 69 -78 49 -28 -18 -70 -3 -77 27 -7 29 39 216 63
253 13 20 20 23 57 18 24 -4 83 -18 132 -32z m-875 -132 c31 -18 60 -40 63
-49 4 -10 -13 -50 -44 -103 -27 -48 -50 -91 -50 -97 0 -6 14 -30 30 -52 l30
-42 84 0 83 0 7 40 c6 39 27 60 62 60 9 0 56 -39 105 -87 119 -116 119 -120 0
-236 -101 -99 -129 -108 -160 -50 -6 12 -11 31 -11 42 0 20 -5 21 -134 21
-126 0 -137 2 -160 23 -31 28 -166 256 -166 280 0 21 13 47 83 172 77 138 77
138 178 78z"/>
</g>
</svg>
